<svg xmlns="http://www.w3.org/2000/svg" xmlns:xlink="http://www.w3.org/1999/xlink" width="160.538" height="83.882" viewBox="0 0 160.538 83.882">
  <defs>
    <linearGradient id="linear-gradient" y1="0.5" x2="1" y2="0.5" gradientUnits="objectBoundingBox">
      <stop offset="0.149" stop-color="#f69841"/>
      <stop offset="1" stop-color="#ff3f7a"/>
    </linearGradient>
    <linearGradient id="linear-gradient-4" x1="-0.596" y1="0.5" x2="1.596" y2="0.5" gradientUnits="objectBoundingBox">
      <stop offset="0.149" stop-color="#7c3edd"/>
      <stop offset="0.814" stop-color="#341f98"/>
    </linearGradient>
    <linearGradient id="linear-gradient-6" x1="1.596" y1="0.5" x2="-0.596" y2="0.5" xlink:href="#linear-gradient"/>
    <linearGradient id="linear-gradient-9" x1="0" y1="0.5" x2="1" y2="0.5" xlink:href="#linear-gradient-4"/>
  </defs>
  <g id="Group_1" data-name="Group 1" transform="translate(-18.568 -33)">
    <path id="Path_1" data-name="Path 1" d="M116.149,88.79,126.223,64a7.354,7.354,0,0,1,9.53-4.088h0a7.353,7.353,0,0,1,3.976,9.578L123,109.171" fill="url(#linear-gradient)"/>
    <path id="Path_2" data-name="Path 2" d="M80.149,87.79,90.223,63a7.354,7.354,0,0,1,9.53-4.088h0a7.353,7.353,0,0,1,3.976,9.578L87.873,107.509" fill="url(#linear-gradient)"/>
    <path id="Path_3" data-name="Path 3" d="M46.149,87.619,56.223,62.833a7.354,7.354,0,0,1,9.53-4.088h0a7.353,7.353,0,0,1,3.976,9.578L53.873,107.338" fill="url(#linear-gradient)"/>
    <rect id="Rectangle_1" data-name="Rectangle 1" width="15" height="61" rx="7.5" transform="matrix(0.921, -0.389, 0.389, 0.921, 53.18, 60.681)" fill="url(#linear-gradient-4)"/>
    <rect id="Rectangle_2" data-name="Rectangle 2" width="15" height="61" rx="7.5" transform="matrix(0.921, -0.389, 0.389, 0.921, 88.18, 60.681)" fill="url(#linear-gradient-4)"/>
    <rect id="Rectangle_3" data-name="Rectangle 3" width="15" height="61" rx="7.5" transform="translate(155.388 116.881) rotate(-157.118)" fill="url(#linear-gradient-6)"/>
    <rect id="Rectangle_4" data-name="Rectangle 4" width="15" height="61" rx="7.5" transform="matrix(0.921, -0.389, 0.389, 0.921, 123.568, 60.681)" fill="url(#linear-gradient-4)"/>
    <rect id="Rectangle_5" data-name="Rectangle 5" width="15" height="61" rx="7.5" transform="translate(18.568 60.682) rotate(-22.882)" fill="url(#linear-gradient-4)"/>
    <circle id="Ellipse_1" data-name="Ellipse 1" cx="11.5" cy="11.5" r="11.5" transform="translate(52 33)" fill="url(#linear-gradient-9)"/>
    <circle id="Ellipse_2" data-name="Ellipse 2" cx="11.5" cy="11.5" r="11.5" transform="translate(121 33)" fill="url(#linear-gradient-9)"/>
    <circle id="Ellipse_3" data-name="Ellipse 3" cx="11.5" cy="11.5" r="11.5" transform="translate(87 33)" fill="url(#linear-gradient)"/>
  </g>
</svg>
